<svg xmlns="http://www.w3.org/2000/svg" width="600" height="87" fill="none"><g fill="#fff" clip-path="url(#a)"><path d="m103.399 19.3-9.86-7.738a24.366 24.366 0 0 0-15.02-5.199L31.47 6.36a24.3 24.3 0 0 0-14.989 5.2l-9.86 7.74C5.86 19.898 5.34 20.71 5 21.59h100c-.32-.879-.859-1.692-1.601-2.29ZM6.62 27.309l9.86 7.77a24.31 24.31 0 0 0 14.988 5.198h47.05c5.43 0 10.763-1.851 15.02-5.199l9.86-7.77c.738-.59 1.281-1.398 1.602-2.269H5.02c.32.871.84 1.691 1.601 2.27Zm86.92 21.613a24.366 24.366 0 0 0-15.02-5.2l-47.051-.003a24.3 24.3 0 0 0-14.989 5.199l-9.859 7.77C5.86 57.3 5.34 58.09 5 58.96h100a5.16 5.16 0 0 0-1.602-2.27l-9.858-7.77ZM6.62 64.7l9.86 7.737a24.3 24.3 0 0 0 14.988 5.2h47.05c5.43 0 10.763-1.852 15.02-5.2l9.86-7.738A5.236 5.236 0 0 0 105 62.4H5.02c.32.91.84 1.703 1.601 2.3Z"/></g><path fill="#fff" d="M143 44.477v-1.954c0-6.64.326-12.207.977-16.699.651-4.525 1.774-8.203 3.369-11.035 1.595-2.832 3.759-4.997 6.494-6.494 2.767-1.497 6.234-2.507 10.4-3.027 4.167-.554 9.18-.83 15.039-.83h19.678c6.706 0 12.354.325 16.943.976 4.623.619 8.334 1.872 11.133 3.76 2.832 1.855 4.883 4.606 6.153 8.252 1.269 3.613 1.904 8.415 1.904 14.404h-9.375c0-4.72-.423-8.382-1.27-10.986-.846-2.637-2.278-4.541-4.297-5.713-1.985-1.172-4.703-1.888-8.154-2.149-3.45-.292-7.796-.439-13.037-.439h-19.678c-4.655 0-8.577.147-11.767.44-3.19.26-5.795.895-7.813 1.904-1.985.976-3.515 2.539-4.59 4.687-1.041 2.149-1.757 5.078-2.148 8.79-.391 3.71-.586 8.43-.586 14.16v1.953c0 5.533.195 10.123.586 13.77.391 3.645 1.107 6.558 2.148 8.74 1.075 2.18 2.605 3.808 4.59 4.882 2.018 1.074 4.623 1.774 7.813 2.1 3.19.325 7.112.488 11.767.488h19.678c5.241 0 9.587-.114 13.037-.342 3.451-.228 6.169-.895 8.154-2.002 2.019-1.106 3.451-2.946 4.297-5.517.847-2.605 1.27-6.25 1.27-10.938h9.375c0 5.99-.635 10.775-1.904 14.356-1.27 3.58-3.321 6.282-6.153 8.105-2.799 1.79-6.51 2.979-11.133 3.565-4.589.585-10.237.879-16.943.879h-19.678c-7.324 0-13.346-.505-18.066-1.514-4.72-.977-8.415-2.8-11.084-5.469-2.637-2.67-4.492-6.51-5.567-11.523-1.041-5.013-1.562-11.54-1.562-19.58Zm125.691 37.597c-7.356 0-13.151-.797-17.382-2.392-4.232-1.628-7.243-4.33-9.034-8.106-1.79-3.808-2.685-9-2.685-15.576V24.75h9.424V56c0 3.71.293 6.77.879 9.18.618 2.376 1.692 4.231 3.222 5.566 1.53 1.302 3.679 2.214 6.446 2.735 2.799.52 6.396.78 10.791.78 6.51 0 11.621-.536 15.332-1.61 3.711-1.075 6.331-2.751 7.861-5.03 1.562-2.311 2.344-5.306 2.344-8.984V24.75h9.375V81h-9.375v-7.47c-1.368 1.887-3.093 3.466-5.176 4.736-2.083 1.27-4.867 2.213-8.35 2.832-3.483.65-8.04.976-13.672.976Zm73.104 0c-6.836 0-12.337-.228-16.504-.683-4.134-.456-7.275-1.303-9.424-2.54-2.116-1.236-3.548-2.994-4.297-5.273-.716-2.279-1.074-5.24-1.074-8.887h8.984c0 2.051.147 3.711.44 4.98.293 1.238 1.123 2.198 2.49 2.882 1.367.65 3.581 1.106 6.641 1.367 3.092.228 7.422.342 12.988.342 5.892 0 10.466-.114 13.721-.342 3.288-.26 5.648-.716 7.08-1.367 1.432-.684 2.295-1.66 2.588-2.93.325-1.27.488-2.946.488-5.03 0-2.538-.228-4.443-.684-5.712-.455-1.27-1.53-2.116-3.222-2.54-1.693-.455-4.395-.7-8.106-.732l-22.363-.244c-5.762-.065-10.156-.553-13.184-1.465-3.027-.911-5.094-2.506-6.201-4.785-1.107-2.311-1.66-5.582-1.66-9.814 0-3.939.602-6.983 1.807-9.131 1.237-2.149 3.157-3.679 5.761-4.59 2.605-.911 5.99-1.448 10.157-1.611 4.166-.196 9.196-.293 15.088-.293 6.933 0 12.434.211 16.503.635 4.102.423 7.162 1.22 9.18 2.392 2.051 1.172 3.386 2.881 4.004 5.127.651 2.214.977 5.11.977 8.692h-8.985c0-2.116-.146-3.777-.439-4.981-.293-1.237-1.091-2.132-2.393-2.685-1.269-.587-3.353-.96-6.25-1.124-2.864-.162-6.901-.244-12.109-.244-5.925 0-10.531.065-13.818.196-3.288.13-5.665.439-7.129.927-1.465.489-2.36 1.27-2.686 2.344-.325 1.042-.488 2.49-.488 4.346 0 1.888.097 3.385.293 4.492.228 1.074.797 1.888 1.709 2.441.911.554 2.392.928 4.443 1.123 2.083.163 4.981.26 8.691.293l19.288.196c5.794.065 10.188.553 13.183 1.465 3.028.879 5.078 2.522 6.153 4.931 1.106 2.377 1.66 5.827 1.66 10.352 0 4.069-.603 7.275-1.807 9.619-1.172 2.344-3.06 4.085-5.664 5.225-2.604 1.106-6.038 1.822-10.303 2.148-4.232.326-9.407.488-15.527.488ZM379.84 81V6h9.375v26.22a18.484 18.484 0 0 1 5.176-4.736c2.083-1.27 4.85-2.213 8.3-2.832 3.483-.65 8.041-.976 13.672-.976 7.357 0 13.151.716 17.383 2.148 4.264 1.432 7.292 3.988 9.082 7.666 1.79 3.679 2.686 8.887 2.686 15.625V81h-9.424V49.115c0-3.84-.326-6.933-.977-9.277-.651-2.344-1.774-4.118-3.369-5.322-1.562-1.205-3.727-2.002-6.494-2.393-2.767-.423-6.283-.635-10.547-.635-6.51 0-11.621.537-15.332 1.612-3.711 1.074-6.331 2.767-7.861 5.078-1.53 2.278-2.295 5.257-2.295 8.935V81h-9.375Zm70.125 0V27.875h9.375V81h-9.375Zm0-65.625V6h9.375v9.375h-9.375Zm46.736 66.699c-6.282 0-11.621-.325-16.015-.976-4.395-.619-7.943-1.905-10.645-3.858-2.702-1.985-4.671-4.948-5.908-8.886-1.237-3.94-1.856-9.196-1.856-15.772 0-6.38.619-11.49 1.856-15.332 1.237-3.841 3.206-6.738 5.908-8.691 2.702-1.954 6.25-3.256 10.645-3.907 4.394-.65 9.733-.976 16.015-.976 6.315 0 11.654.325 16.016.976 4.394.651 7.943 1.953 10.644 3.907 2.702 1.953 4.672 4.85 5.909 8.691 1.237 3.841 1.855 8.952 1.855 15.332 0 6.576-.618 11.833-1.855 15.771-1.237 3.94-3.207 6.902-5.909 8.887-2.701 1.953-6.25 3.24-10.644 3.858-4.362.65-9.701.976-16.016.976Zm25.049-29.492c0-4.655-.244-8.382-.732-11.182-.456-2.8-1.482-4.899-3.077-6.298-1.595-1.433-4.085-2.393-7.47-2.881-3.353-.489-7.943-.733-13.77-.733-5.794 0-10.384.244-13.769.733-3.386.488-5.876 1.448-7.471 2.88-1.595 1.4-2.637 3.5-3.125 6.3-.456 2.799-.684 6.526-.684 11.181 0 4.818.228 8.675.684 11.572.488 2.897 1.53 5.078 3.125 6.543 1.595 1.433 4.085 2.393 7.471 2.881 3.385.456 7.975.684 13.769.684 5.827 0 10.417-.228 13.77-.684 3.385-.488 5.875-1.448 7.47-2.88 1.595-1.466 2.621-3.647 3.077-6.544.488-2.897.732-6.754.732-11.572ZM534.258 81V24.75h9.375v7.47a18.484 18.484 0 0 1 5.176-4.736c2.083-1.27 4.85-2.213 8.3-2.832 3.483-.65 8.041-.976 13.672-.976 7.357 0 13.151.716 17.383 2.148 4.264 1.432 7.292 3.988 9.082 7.666 1.79 3.679 2.686 8.887 2.686 15.625V81h-9.424V49.115c0-3.84-.326-6.933-.977-9.277-.651-2.344-1.774-4.118-3.369-5.322-1.562-1.205-3.727-2.002-6.494-2.393-2.767-.423-6.283-.635-10.547-.635-6.51 0-11.621.537-15.332 1.612-3.711 1.074-6.331 2.767-7.861 5.078-1.53 2.278-2.295 5.257-2.295 8.935V81h-9.375Z"/><defs><clipPath id="a"><path fill="#fff" d="M0 0h110v87H0z"/></clipPath></defs></svg>